<?xml version="1.0" encoding="UTF-8"?>
<svg xmlns="http://www.w3.org/2000/svg" version="1.1" width="200" height="200" viewBox="0 0 200 200"><rect x="0" y="0" width="200" height="200" fill="#ffffff"/><g transform="scale(9.524)"><g transform="translate(0,0)"><path fill-rule="evenodd" d="M9 0L9 1L8 1L8 3L9 3L9 4L8 4L8 8L6 8L6 9L7 9L7 10L6 10L6 11L7 11L7 12L5 12L5 9L4 9L4 8L3 8L3 10L2 10L2 8L0 8L0 12L1 12L1 10L2 10L2 11L3 11L3 12L2 12L2 13L3 13L3 12L5 12L5 13L8 13L8 15L9 15L9 14L10 14L10 10L11 10L11 8L13 8L13 4L12 4L12 3L13 3L13 2L12 2L12 1L13 1L13 0L11 0L11 2L12 2L12 3L11 3L11 4L12 4L12 5L11 5L11 6L10 6L10 7L9 7L9 4L10 4L10 0ZM11 6L11 7L12 7L12 6ZM8 8L8 10L10 10L10 9L9 9L9 8ZM14 8L14 10L12 10L12 11L11 11L11 12L12 12L12 13L11 13L11 14L12 14L12 13L13 13L13 12L12 12L12 11L14 11L14 10L15 10L15 9L17 9L17 8ZM18 8L18 11L17 11L17 12L16 12L16 13L15 13L15 12L14 12L14 13L15 13L15 16L14 16L14 14L13 14L13 15L11 15L11 18L9 18L9 17L10 17L10 16L9 16L9 17L8 17L8 18L9 18L9 19L8 19L8 21L10 21L10 20L9 20L9 19L11 19L11 18L12 18L12 19L13 19L13 20L11 20L11 21L13 21L13 20L16 20L16 21L19 21L19 20L17 20L17 19L19 19L19 18L20 18L20 20L21 20L21 15L20 15L20 16L18 16L18 17L17 17L17 15L19 15L19 14L20 14L20 12L21 12L21 9L20 9L20 8ZM19 9L19 11L18 11L18 12L19 12L19 11L20 11L20 9ZM3 10L3 11L4 11L4 10ZM8 12L8 13L9 13L9 12ZM18 13L18 14L19 14L19 13ZM16 14L16 15L17 15L17 14ZM12 16L12 18L13 18L13 19L16 19L16 18L17 18L17 17L16 17L16 18L15 18L15 17L14 17L14 16ZM18 17L18 18L19 18L19 17ZM0 0L0 7L7 7L7 0ZM1 1L1 6L6 6L6 1ZM2 2L2 5L5 5L5 2ZM14 0L14 7L21 7L21 0ZM15 1L15 6L20 6L20 1ZM16 2L16 5L19 5L19 2ZM0 14L0 21L7 21L7 14ZM1 15L1 20L6 20L6 15ZM2 16L2 19L5 19L5 16Z" fill="#000000"/></g></g></svg>
