<?xml version="1.0" encoding="UTF-8"?>
<svg xmlns="http://www.w3.org/2000/svg" version="1.1" width="200" height="200" viewBox="0 0 200 200"><rect x="0" y="0" width="200" height="200" fill="#ffffff"/><g transform="scale(9.524)"><g transform="translate(0,0)"><path fill-rule="evenodd" d="M8 0L8 1L9 1L9 0ZM10 0L10 2L8 2L8 5L9 5L9 6L8 6L8 7L9 7L9 6L10 6L10 7L11 7L11 8L8 8L8 9L7 9L7 8L6 8L6 9L5 9L5 10L4 10L4 8L0 8L0 10L1 10L1 9L3 9L3 10L2 10L2 11L4 11L4 12L3 12L3 13L4 13L4 12L5 12L5 11L7 11L7 12L6 12L6 13L7 13L7 12L8 12L8 11L7 11L7 10L9 10L9 11L10 11L10 12L9 12L9 13L8 13L8 14L11 14L11 15L10 15L10 16L9 16L9 17L8 17L8 21L10 21L10 20L11 20L11 18L10 18L10 20L9 20L9 17L11 17L11 15L15 15L15 16L17 16L17 15L18 15L18 17L19 17L19 18L20 18L20 17L19 17L19 16L21 16L21 15L18 15L18 14L20 14L20 13L19 13L19 12L18 12L18 11L20 11L20 12L21 12L21 10L20 10L20 9L21 9L21 8L20 8L20 9L19 9L19 8L16 8L16 10L17 10L17 12L18 12L18 14L17 14L17 13L16 13L16 11L15 11L15 10L14 10L14 11L13 11L13 12L12 12L12 10L13 10L13 9L14 9L14 8L13 8L13 5L12 5L12 4L13 4L13 3L12 3L12 1L13 1L13 0ZM10 2L10 4L9 4L9 5L11 5L11 4L12 4L12 3L11 3L11 2ZM11 6L11 7L12 7L12 6ZM6 9L6 10L7 10L7 9ZM9 9L9 10L10 10L10 11L11 11L11 10L10 10L10 9ZM17 9L17 10L18 10L18 9ZM0 11L0 13L1 13L1 11ZM14 11L14 12L15 12L15 11ZM10 12L10 13L12 13L12 14L13 14L13 13L12 13L12 12ZM15 14L15 15L16 15L16 14ZM12 16L12 17L13 17L13 18L12 18L12 19L14 19L14 21L15 21L15 19L16 19L16 17L15 17L15 19L14 19L14 16ZM17 19L17 20L16 20L16 21L19 21L19 20L18 20L18 19ZM20 19L20 20L21 20L21 19ZM12 20L12 21L13 21L13 20ZM0 0L0 7L7 7L7 0ZM1 1L1 6L6 6L6 1ZM2 2L2 5L5 5L5 2ZM14 0L14 7L21 7L21 0ZM15 1L15 6L20 6L20 1ZM16 2L16 5L19 5L19 2ZM0 14L0 21L7 21L7 14ZM1 15L1 20L6 20L6 15ZM2 16L2 19L5 19L5 16Z" fill="#000000"/></g></g></svg>
