<?xml version="1.0" encoding="UTF-8"?>
<svg xmlns="http://www.w3.org/2000/svg" version="1.1" width="200" height="200" viewBox="0 0 200 200"><rect x="0" y="0" width="200" height="200" fill="#ffffff"/><g transform="scale(9.524)"><g transform="translate(0,0)"><path fill-rule="evenodd" d="M10 0L10 1L11 1L11 0ZM12 0L12 2L13 2L13 0ZM8 2L8 3L9 3L9 2ZM10 2L10 3L11 3L11 2ZM12 3L12 4L11 4L11 5L10 5L10 4L9 4L9 6L8 6L8 8L4 8L4 9L3 9L3 8L0 8L0 10L1 10L1 11L0 11L0 13L1 13L1 11L2 11L2 12L3 12L3 13L5 13L5 11L7 11L7 12L6 12L6 13L7 13L7 12L8 12L8 11L7 11L7 10L9 10L9 12L10 12L10 13L11 13L11 14L12 14L12 15L11 15L11 16L12 16L12 15L13 15L13 17L14 17L14 19L11 19L11 20L10 20L10 21L11 21L11 20L14 20L14 21L17 21L17 20L18 20L18 21L19 21L19 20L20 20L20 21L21 21L21 18L20 18L20 17L19 17L19 18L20 18L20 19L18 19L18 16L20 16L20 15L18 15L18 16L17 16L17 14L15 14L15 15L16 15L16 16L17 16L17 18L16 18L16 17L15 17L15 16L14 16L14 15L13 15L13 14L14 14L14 13L15 13L15 12L14 12L14 13L13 13L13 14L12 14L12 12L13 12L13 11L12 11L12 9L13 9L13 10L14 10L14 11L15 11L15 10L16 10L16 11L17 11L17 10L19 10L19 11L21 11L21 9L20 9L20 10L19 10L19 8L18 8L18 9L17 9L17 10L16 10L16 9L15 9L15 8L12 8L12 9L11 9L11 6L12 6L12 7L13 7L13 6L12 6L12 5L13 5L13 3ZM9 6L9 10L11 10L11 9L10 9L10 6ZM1 9L1 10L2 10L2 11L3 11L3 12L4 12L4 11L3 11L3 9ZM4 9L4 10L5 10L5 9ZM6 9L6 10L7 10L7 9ZM14 9L14 10L15 10L15 9ZM10 11L10 12L11 12L11 11ZM18 12L18 13L20 13L20 12ZM8 13L8 17L10 17L10 14L9 14L9 13ZM11 17L11 18L12 18L12 17ZM8 18L8 21L9 21L9 19L10 19L10 18ZM15 18L15 20L16 20L16 18ZM0 0L0 7L7 7L7 0ZM1 1L1 6L6 6L6 1ZM2 2L2 5L5 5L5 2ZM14 0L14 7L21 7L21 0ZM15 1L15 6L20 6L20 1ZM16 2L16 5L19 5L19 2ZM0 14L0 21L7 21L7 14ZM1 15L1 20L6 20L6 15ZM2 16L2 19L5 19L5 16Z" fill="#000000"/></g></g></svg>
