<?xml version="1.0" encoding="UTF-8"?>
<svg xmlns="http://www.w3.org/2000/svg" version="1.1" width="200" height="200" viewBox="0 0 200 200"><rect x="0" y="0" width="200" height="200" fill="#ffffff"/><g transform="scale(9.524)"><g transform="translate(0,0)"><path fill-rule="evenodd" d="M8 0L8 4L9 4L9 5L8 5L8 7L9 7L9 5L10 5L10 7L11 7L11 5L12 5L12 7L13 7L13 2L12 2L12 1L13 1L13 0L12 0L12 1L11 1L11 2L10 2L10 1L9 1L9 0ZM9 3L9 4L10 4L10 3ZM11 3L11 4L12 4L12 3ZM0 8L0 9L1 9L1 10L0 10L0 11L1 11L1 12L0 12L0 13L1 13L1 12L2 12L2 13L5 13L5 12L4 12L4 10L2 10L2 8ZM4 8L4 9L5 9L5 11L7 11L7 12L6 12L6 13L7 13L7 12L8 12L8 14L9 14L9 13L10 13L10 14L11 14L11 15L8 15L8 17L9 17L9 19L8 19L8 21L12 21L12 20L13 20L13 19L14 19L14 18L15 18L15 15L16 15L16 16L17 16L17 17L18 17L18 15L19 15L19 14L20 14L20 16L19 16L19 18L21 18L21 14L20 14L20 12L21 12L21 11L20 11L20 10L21 10L21 8L17 8L17 9L18 9L18 11L17 11L17 12L16 12L16 11L15 11L15 12L14 12L14 13L15 13L15 14L14 14L14 15L13 15L13 16L12 16L12 19L11 19L11 15L12 15L12 14L13 14L13 13L12 13L12 12L13 12L13 11L14 11L14 10L15 10L15 9L16 9L16 8L15 8L15 9L13 9L13 8L12 8L12 11L11 11L11 10L10 10L10 9L7 9L7 8ZM6 9L6 10L7 10L7 9ZM19 9L19 10L20 10L20 9ZM9 10L9 11L8 11L8 12L10 12L10 13L11 13L11 12L10 12L10 10ZM18 11L18 12L17 12L17 13L16 13L16 14L17 14L17 13L18 13L18 14L19 14L19 11ZM9 16L9 17L10 17L10 16ZM17 18L17 20L16 20L16 19L15 19L15 20L14 20L14 21L17 21L17 20L18 20L18 21L21 21L21 19L20 19L20 20L18 20L18 18ZM10 19L10 20L11 20L11 19ZM0 0L0 7L7 7L7 0ZM1 1L1 6L6 6L6 1ZM2 2L2 5L5 5L5 2ZM14 0L14 7L21 7L21 0ZM15 1L15 6L20 6L20 1ZM16 2L16 5L19 5L19 2ZM0 14L0 21L7 21L7 14ZM1 15L1 20L6 20L6 15ZM2 16L2 19L5 19L5 16Z" fill="#000000"/></g></g></svg>
