<?xml version="1.0" encoding="UTF-8"?>
<svg xmlns="http://www.w3.org/2000/svg" version="1.1" width="200" height="200" viewBox="0 0 200 200"><rect x="0" y="0" width="200" height="200" fill="#ffffff"/><g transform="scale(9.524)"><g transform="translate(0,0)"><path fill-rule="evenodd" d="M8 0L8 4L9 4L9 5L8 5L8 7L9 7L9 5L10 5L10 7L11 7L11 5L12 5L12 7L13 7L13 2L12 2L12 1L13 1L13 0L12 0L12 1L11 1L11 2L10 2L10 1L9 1L9 0ZM9 3L9 4L10 4L10 3ZM11 3L11 4L12 4L12 3ZM0 8L0 9L2 9L2 10L0 10L0 11L1 11L1 12L2 12L2 13L3 13L3 12L4 12L4 10L5 10L5 9L7 9L7 8L4 8L4 10L3 10L3 9L2 9L2 8ZM12 8L12 11L11 11L11 10L10 10L10 9L9 9L9 10L10 10L10 11L9 11L9 12L8 12L8 11L7 11L7 10L6 10L6 11L7 11L7 12L5 12L5 13L7 13L7 12L8 12L8 14L9 14L9 15L8 15L8 17L9 17L9 19L8 19L8 21L12 21L12 20L13 20L13 19L14 19L14 18L15 18L15 17L16 17L16 18L17 18L17 17L18 17L18 19L17 19L17 20L19 20L19 21L21 21L21 19L20 19L20 20L19 20L19 18L21 18L21 16L20 16L20 15L21 15L21 13L20 13L20 15L19 15L19 12L20 12L20 10L15 10L15 9L16 9L16 8L15 8L15 9L14 9L14 10L15 10L15 11L16 11L16 12L13 12L13 8ZM17 8L17 9L21 9L21 8ZM2 10L2 11L3 11L3 10ZM10 11L10 13L9 13L9 14L10 14L10 16L11 16L11 17L10 17L10 19L9 19L9 20L10 20L10 19L12 19L12 16L13 16L13 15L14 15L14 14L15 14L15 15L17 15L17 16L18 16L18 17L20 17L20 16L18 16L18 15L17 15L17 14L16 14L16 13L13 13L13 12L12 12L12 13L13 13L13 14L12 14L12 15L11 15L11 11ZM17 11L17 13L18 13L18 12L19 12L19 11ZM14 20L14 21L15 21L15 20ZM0 0L0 7L7 7L7 0ZM1 1L1 6L6 6L6 1ZM2 2L2 5L5 5L5 2ZM14 0L14 7L21 7L21 0ZM15 1L15 6L20 6L20 1ZM16 2L16 5L19 5L19 2ZM0 14L0 21L7 21L7 14ZM1 15L1 20L6 20L6 15ZM2 16L2 19L5 19L5 16Z" fill="#000000"/></g></g></svg>
