<?xml version="1.0" encoding="UTF-8"?>
<svg xmlns="http://www.w3.org/2000/svg" version="1.1" width="200" height="200" viewBox="0 0 200 200"><rect x="0" y="0" width="200" height="200" fill="#ffffff"/><g transform="scale(9.524)"><g transform="translate(0,0)"><path fill-rule="evenodd" d="M8 0L8 1L9 1L9 2L8 2L8 5L10 5L10 7L11 7L11 8L10 8L10 9L9 9L9 8L8 8L8 9L9 9L9 11L8 11L8 10L6 10L6 11L8 11L8 12L9 12L9 11L10 11L10 14L11 14L11 12L12 12L12 14L13 14L13 15L15 15L15 18L14 18L14 16L13 16L13 17L12 17L12 16L9 16L9 17L8 17L8 21L9 21L9 20L12 20L12 19L13 19L13 18L14 18L14 21L16 21L16 20L15 20L15 18L17 18L17 19L19 19L19 18L17 18L17 17L18 17L18 16L20 16L20 17L21 17L21 16L20 16L20 15L17 15L17 13L19 13L19 12L18 12L18 9L19 9L19 8L16 8L16 9L15 9L15 10L14 10L14 8L13 8L13 11L12 11L12 9L11 9L11 8L12 8L12 7L13 7L13 6L12 6L12 7L11 7L11 5L10 5L10 4L11 4L11 2L12 2L12 0L11 0L11 1L10 1L10 0ZM9 2L9 4L10 4L10 2ZM12 4L12 5L13 5L13 4ZM8 6L8 7L9 7L9 6ZM0 8L0 10L1 10L1 9L3 9L3 10L2 10L2 11L4 11L4 13L7 13L7 12L5 12L5 10L4 10L4 8ZM6 8L6 9L7 9L7 8ZM20 8L20 9L21 9L21 8ZM10 9L10 10L11 10L11 9ZM16 9L16 11L13 11L13 12L14 12L14 13L17 13L17 9ZM19 10L19 11L21 11L21 10ZM0 12L0 13L3 13L3 12ZM8 13L8 14L9 14L9 13ZM20 13L20 14L21 14L21 13ZM16 15L16 17L17 17L17 15ZM9 17L9 19L12 19L12 18L11 18L11 17ZM20 19L20 20L21 20L21 19ZM0 0L0 7L7 7L7 0ZM1 1L1 6L6 6L6 1ZM2 2L2 5L5 5L5 2ZM14 0L14 7L21 7L21 0ZM15 1L15 6L20 6L20 1ZM16 2L16 5L19 5L19 2ZM0 14L0 21L7 21L7 14ZM1 15L1 20L6 20L6 15ZM2 16L2 19L5 19L5 16Z" fill="#000000"/></g></g></svg>
