<?xml version="1.0" encoding="UTF-8"?>
<svg xmlns="http://www.w3.org/2000/svg" version="1.1" width="200" height="200" viewBox="0 0 200 200"><rect x="0" y="0" width="200" height="200" fill="#ffffff"/><g transform="scale(9.524)"><g transform="translate(0,0)"><path fill-rule="evenodd" d="M8 0L8 4L9 4L9 5L8 5L8 7L9 7L9 8L12 8L12 9L11 9L11 11L12 11L12 13L10 13L10 9L9 9L9 11L8 11L8 10L6 10L6 9L7 9L7 8L4 8L4 9L2 9L2 8L0 8L0 9L1 9L1 10L2 10L2 12L5 12L5 13L7 13L7 12L8 12L8 14L11 14L11 15L8 15L8 17L9 17L9 19L8 19L8 21L9 21L9 20L12 20L12 21L13 21L13 20L12 20L12 17L13 17L13 18L14 18L14 19L15 19L15 21L17 21L17 18L16 18L16 16L17 16L17 15L18 15L18 14L19 14L19 16L18 16L18 18L19 18L19 17L20 17L20 18L21 18L21 16L20 16L20 14L21 14L21 12L20 12L20 10L21 10L21 8L17 8L17 10L16 10L16 11L18 11L18 9L19 9L19 12L17 12L17 13L16 13L16 12L15 12L15 14L14 14L14 9L13 9L13 8L12 8L12 7L13 7L13 5L12 5L12 4L13 4L13 3L12 3L12 2L13 2L13 1L12 1L12 0L10 0L10 1L9 1L9 0ZM10 1L10 2L12 2L12 1ZM9 3L9 4L10 4L10 5L9 5L9 7L10 7L10 6L11 6L11 7L12 7L12 5L11 5L11 3ZM15 8L15 9L16 9L16 8ZM12 9L12 11L13 11L13 9ZM3 10L3 11L6 11L6 12L7 12L7 11L6 11L6 10ZM0 12L0 13L1 13L1 12ZM12 13L12 15L13 15L13 17L15 17L15 15L13 15L13 13ZM9 16L9 17L10 17L10 19L11 19L11 17L12 17L12 16ZM15 18L15 19L16 19L16 18ZM18 20L18 21L19 21L19 20ZM20 20L20 21L21 21L21 20ZM0 0L0 7L7 7L7 0ZM1 1L1 6L6 6L6 1ZM2 2L2 5L5 5L5 2ZM14 0L14 7L21 7L21 0ZM15 1L15 6L20 6L20 1ZM16 2L16 5L19 5L19 2ZM0 14L0 21L7 21L7 14ZM1 15L1 20L6 20L6 15ZM2 16L2 19L5 19L5 16Z" fill="#000000"/></g></g></svg>
