<?xml version="1.0" encoding="UTF-8"?>
<svg xmlns="http://www.w3.org/2000/svg" version="1.1" width="200" height="200" viewBox="0 0 200 200"><rect x="0" y="0" width="200" height="200" fill="#ffffff"/><g transform="scale(9.524)"><g transform="translate(0,0)"><path fill-rule="evenodd" d="M9 0L9 1L8 1L8 2L9 2L9 3L8 3L8 4L9 4L9 3L10 3L10 4L11 4L11 5L12 5L12 9L10 9L10 7L11 7L11 6L10 6L10 7L9 7L9 5L8 5L8 7L9 7L9 8L6 8L6 9L5 9L5 8L0 8L0 9L3 9L3 12L2 12L2 11L1 11L1 10L0 10L0 11L1 11L1 12L0 12L0 13L4 13L4 12L6 12L6 13L8 13L8 15L11 15L11 14L12 14L12 15L14 15L14 14L15 14L15 13L16 13L16 14L18 14L18 15L17 15L17 16L18 16L18 18L17 18L17 20L16 20L16 19L15 19L15 18L14 18L14 19L15 19L15 20L13 20L13 18L12 18L12 17L15 17L15 16L16 16L16 15L15 15L15 16L12 16L12 17L11 17L11 16L8 16L8 21L10 21L10 19L11 19L11 18L12 18L12 21L15 21L15 20L16 20L16 21L17 21L17 20L18 20L18 21L20 21L20 20L19 20L19 18L20 18L20 17L19 17L19 16L20 16L20 14L19 14L19 12L20 12L20 10L18 10L18 8L17 8L17 9L16 9L16 8L15 8L15 10L14 10L14 8L13 8L13 5L12 5L12 4L11 4L11 3L10 3L10 1L12 1L12 3L13 3L13 1L12 1L12 0ZM19 8L19 9L20 9L20 8ZM4 9L4 10L5 10L5 9ZM6 9L6 10L7 10L7 11L6 11L6 12L8 12L8 13L9 13L9 14L11 14L11 13L12 13L12 14L14 14L14 12L15 12L15 11L18 11L18 10L15 10L15 11L14 11L14 10L13 10L13 9L12 9L12 10L10 10L10 9L9 9L9 10L10 10L10 11L12 11L12 12L9 12L9 11L8 11L8 10L7 10L7 9ZM12 10L12 11L13 11L13 12L12 12L12 13L13 13L13 12L14 12L14 11L13 11L13 10ZM10 17L10 18L9 18L9 19L10 19L10 18L11 18L11 17ZM0 0L0 7L7 7L7 0ZM1 1L1 6L6 6L6 1ZM2 2L2 5L5 5L5 2ZM14 0L14 7L21 7L21 0ZM15 1L15 6L20 6L20 1ZM16 2L16 5L19 5L19 2ZM0 14L0 21L7 21L7 14ZM1 15L1 20L6 20L6 15ZM2 16L2 19L5 19L5 16Z" fill="#000000"/></g></g></svg>
