<?xml version="1.0" encoding="UTF-8"?>
<svg xmlns="http://www.w3.org/2000/svg" version="1.1" width="200" height="200" viewBox="0 0 200 200"><rect x="0" y="0" width="200" height="200" fill="#ffffff"/><g transform="scale(9.524)"><g transform="translate(0,0)"><path fill-rule="evenodd" d="M9 0L9 1L8 1L8 2L9 2L9 3L8 3L8 4L9 4L9 5L8 5L8 7L9 7L9 8L6 8L6 9L8 9L8 11L7 11L7 10L4 10L4 9L5 9L5 8L0 8L0 9L3 9L3 10L1 10L1 11L0 11L0 13L1 13L1 11L3 11L3 12L4 12L4 13L5 13L5 12L4 12L4 11L7 11L7 12L6 12L6 13L7 13L7 12L8 12L8 15L9 15L9 16L8 16L8 21L9 21L9 19L10 19L10 21L11 21L11 18L12 18L12 21L15 21L15 20L16 20L16 21L17 21L17 20L18 20L18 21L20 21L20 20L19 20L19 18L20 18L20 17L19 17L19 16L20 16L20 14L19 14L19 12L20 12L20 10L18 10L18 8L17 8L17 9L16 9L16 8L15 8L15 9L16 9L16 10L12 10L12 9L14 9L14 8L13 8L13 5L12 5L12 4L11 4L11 3L13 3L13 1L12 1L12 0L11 0L11 1L10 1L10 0ZM9 1L9 2L10 2L10 3L9 3L9 4L10 4L10 5L9 5L9 7L10 7L10 9L12 9L12 5L11 5L11 4L10 4L10 3L11 3L11 2L12 2L12 1L11 1L11 2L10 2L10 1ZM10 5L10 7L11 7L11 5ZM19 8L19 9L20 9L20 8ZM3 10L3 11L4 11L4 10ZM11 10L11 11L9 11L9 13L10 13L10 14L9 14L9 15L10 15L10 14L11 14L11 16L10 16L10 17L12 17L12 18L13 18L13 20L15 20L15 19L16 19L16 20L17 20L17 18L18 18L18 16L17 16L17 15L18 15L18 14L15 14L15 13L16 13L16 11L18 11L18 10L16 10L16 11L12 11L12 10ZM11 11L11 12L10 12L10 13L11 13L11 14L12 14L12 15L15 15L15 16L12 16L12 17L15 17L15 16L16 16L16 15L15 15L15 14L14 14L14 13L15 13L15 12L12 12L12 11ZM11 12L11 13L12 13L12 14L13 14L13 13L12 13L12 12ZM14 18L14 19L15 19L15 18ZM0 0L0 7L7 7L7 0ZM1 1L1 6L6 6L6 1ZM2 2L2 5L5 5L5 2ZM14 0L14 7L21 7L21 0ZM15 1L15 6L20 6L20 1ZM16 2L16 5L19 5L19 2ZM0 14L0 21L7 21L7 14ZM1 15L1 20L6 20L6 15ZM2 16L2 19L5 19L5 16Z" fill="#000000"/></g></g></svg>
