<?xml version="1.0" encoding="UTF-8"?>
<svg xmlns="http://www.w3.org/2000/svg" version="1.1" width="200" height="200" viewBox="0 0 200 200"><rect x="0" y="0" width="200" height="200" fill="#ffffff"/><g transform="scale(9.524)"><g transform="translate(0,0)"><path fill-rule="evenodd" d="M9 0L9 3L8 3L8 5L9 5L9 6L8 6L8 7L9 7L9 6L10 6L10 7L11 7L11 5L12 5L12 9L11 9L11 10L10 10L10 8L9 8L9 10L10 10L10 11L7 11L7 10L6 10L6 9L8 9L8 8L5 8L5 10L4 10L4 9L3 9L3 11L5 11L5 10L6 10L6 11L7 11L7 12L6 12L6 13L7 13L7 12L10 12L10 11L11 11L11 14L10 14L10 15L9 15L9 13L8 13L8 16L10 16L10 18L9 18L9 19L8 19L8 21L9 21L9 19L10 19L10 21L11 21L11 19L12 19L12 21L15 21L15 20L13 20L13 19L14 19L14 18L12 18L12 17L15 17L15 18L16 18L16 19L17 19L17 20L16 20L16 21L17 21L17 20L18 20L18 21L20 21L20 20L19 20L19 19L21 19L21 18L20 18L20 17L19 17L19 16L21 16L21 15L20 15L20 14L19 14L19 13L21 13L21 12L20 12L20 10L21 10L21 9L20 9L20 10L18 10L18 8L16 8L16 9L14 9L14 10L16 10L16 9L17 9L17 10L18 10L18 11L17 11L17 12L18 12L18 13L16 13L16 11L15 11L15 12L14 12L14 11L13 11L13 10L12 10L12 9L13 9L13 5L12 5L12 4L13 4L13 3L12 3L12 2L13 2L13 1L12 1L12 2L11 2L11 5L9 5L9 4L10 4L10 1L11 1L11 0ZM0 8L0 10L1 10L1 9L2 9L2 8ZM11 10L11 11L12 11L12 12L13 12L13 13L12 13L12 14L11 14L11 17L12 17L12 16L14 16L14 15L15 15L15 17L16 17L16 18L17 18L17 19L18 19L18 16L16 16L16 15L18 15L18 14L15 14L15 13L14 13L14 12L13 12L13 11L12 11L12 10ZM1 11L1 13L3 13L3 12L2 12L2 11ZM12 14L12 15L14 15L14 14ZM0 0L0 7L7 7L7 0ZM1 1L1 6L6 6L6 1ZM2 2L2 5L5 5L5 2ZM14 0L14 7L21 7L21 0ZM15 1L15 6L20 6L20 1ZM16 2L16 5L19 5L19 2ZM0 14L0 21L7 21L7 14ZM1 15L1 20L6 20L6 15ZM2 16L2 19L5 19L5 16Z" fill="#000000"/></g></g></svg>
