<?xml version="1.0" encoding="UTF-8"?>
<svg xmlns="http://www.w3.org/2000/svg" version="1.1" width="200" height="200" viewBox="0 0 200 200"><rect x="0" y="0" width="200" height="200" fill="#ffffff"/><g transform="scale(9.524)"><g transform="translate(0,0)"><path fill-rule="evenodd" d="M11 0L11 2L10 2L10 1L9 1L9 2L8 2L8 3L9 3L9 2L10 2L10 4L9 4L9 5L10 5L10 7L9 7L9 6L8 6L8 8L4 8L4 9L3 9L3 8L0 8L0 9L2 9L2 10L4 10L4 12L3 12L3 11L2 11L2 12L3 12L3 13L7 13L7 12L8 12L8 17L9 17L9 18L8 18L8 21L11 21L11 20L12 20L12 21L14 21L14 19L13 19L13 18L14 18L14 14L13 14L13 13L14 13L14 12L13 12L13 9L15 9L15 10L14 10L14 11L15 11L15 13L19 13L19 14L18 14L18 15L21 15L21 14L20 14L20 13L21 13L21 12L20 12L20 13L19 13L19 12L16 12L16 11L17 11L17 10L16 10L16 9L15 9L15 8L12 8L12 7L13 7L13 6L12 6L12 4L11 4L11 3L12 3L12 0ZM11 6L11 7L10 7L10 8L9 8L9 9L4 9L4 10L5 10L5 12L7 12L7 11L8 11L8 12L9 12L9 16L11 16L11 19L12 19L12 20L13 20L13 19L12 19L12 16L11 16L11 15L12 15L12 8L11 8L11 7L12 7L12 6ZM10 8L10 9L9 9L9 12L10 12L10 13L11 13L11 12L10 12L10 11L11 11L11 8ZM18 8L18 11L21 11L21 10L20 10L20 9L19 9L19 8ZM6 10L6 11L7 11L7 10ZM0 11L0 12L1 12L1 11ZM15 14L15 17L17 17L17 18L15 18L15 21L16 21L16 19L19 19L19 20L18 20L18 21L21 21L21 20L20 20L20 19L21 19L21 18L20 18L20 19L19 19L19 18L18 18L18 17L19 17L19 16L18 16L18 17L17 17L17 16L16 16L16 15L17 15L17 14ZM20 16L20 17L21 17L21 16ZM9 18L9 20L10 20L10 18ZM0 0L0 7L7 7L7 0ZM1 1L1 6L6 6L6 1ZM2 2L2 5L5 5L5 2ZM14 0L14 7L21 7L21 0ZM15 1L15 6L20 6L20 1ZM16 2L16 5L19 5L19 2ZM0 14L0 21L7 21L7 14ZM1 15L1 20L6 20L6 15ZM2 16L2 19L5 19L5 16Z" fill="#000000"/></g></g></svg>
