<?xml version="1.0" encoding="UTF-8"?>
<svg xmlns="http://www.w3.org/2000/svg" version="1.1" width="200" height="200" viewBox="0 0 200 200"><rect x="0" y="0" width="200" height="200" fill="#ffffff"/><g transform="scale(9.524)"><g transform="translate(0,0)"><path fill-rule="evenodd" d="M8 0L8 1L9 1L9 2L8 2L8 5L9 5L9 6L8 6L8 7L9 7L9 6L10 6L10 7L11 7L11 8L10 8L10 9L9 9L9 8L8 8L8 10L6 10L6 9L7 9L7 8L6 8L6 9L4 9L4 8L0 8L0 10L3 10L3 9L4 9L4 11L3 11L3 12L2 12L2 11L0 11L0 13L3 13L3 12L4 12L4 13L5 13L5 12L4 12L4 11L8 11L8 14L9 14L9 15L10 15L10 13L11 13L11 12L12 12L12 14L13 14L13 15L14 15L14 13L13 13L13 11L14 11L14 10L13 10L13 11L12 11L12 9L11 9L11 8L12 8L12 7L13 7L13 6L12 6L12 7L11 7L11 6L10 6L10 4L11 4L11 2L12 2L12 0L11 0L11 2L10 2L10 0ZM9 2L9 4L10 4L10 2ZM12 4L12 5L13 5L13 4ZM13 8L13 9L14 9L14 8ZM16 8L16 10L17 10L17 11L16 11L16 12L17 12L17 13L15 13L15 18L14 18L14 16L13 16L13 17L12 17L12 16L11 16L11 17L10 17L10 16L9 16L9 17L8 17L8 21L9 21L9 20L10 20L10 21L11 21L11 20L12 20L12 19L13 19L13 18L14 18L14 21L16 21L16 20L15 20L15 18L17 18L17 19L19 19L19 18L17 18L17 17L18 17L18 16L20 16L20 17L21 17L21 16L20 16L20 15L17 15L17 13L19 13L19 12L18 12L18 9L19 9L19 8ZM20 8L20 9L21 9L21 8ZM10 9L10 10L11 10L11 9ZM8 10L8 11L9 11L9 12L11 12L11 11L9 11L9 10ZM19 10L19 11L21 11L21 10ZM6 12L6 13L7 13L7 12ZM20 13L20 14L21 14L21 13ZM16 15L16 17L17 17L17 15ZM9 18L9 19L10 19L10 20L11 20L11 19L12 19L12 18L11 18L11 19L10 19L10 18ZM20 19L20 20L21 20L21 19ZM0 0L0 7L7 7L7 0ZM1 1L1 6L6 6L6 1ZM2 2L2 5L5 5L5 2ZM14 0L14 7L21 7L21 0ZM15 1L15 6L20 6L20 1ZM16 2L16 5L19 5L19 2ZM0 14L0 21L7 21L7 14ZM1 15L1 20L6 20L6 15ZM2 16L2 19L5 19L5 16Z" fill="#000000"/></g></g></svg>
