<?xml version="1.0" encoding="UTF-8"?>
<svg xmlns="http://www.w3.org/2000/svg" version="1.1" width="200" height="200" viewBox="0 0 200 200"><rect x="0" y="0" width="200" height="200" fill="#ffffff"/><g transform="scale(9.524)"><g transform="translate(0,0)"><path fill-rule="evenodd" d="M8 0L8 1L9 1L9 2L8 2L8 5L11 5L11 4L12 4L12 3L13 3L13 0L12 0L12 3L11 3L11 2L10 2L10 0ZM9 2L9 4L11 4L11 3L10 3L10 2ZM8 6L8 7L9 7L9 8L8 8L8 9L7 9L7 8L6 8L6 9L7 9L7 10L6 10L6 11L7 11L7 12L5 12L5 11L4 11L4 10L5 10L5 9L4 9L4 8L0 8L0 9L3 9L3 11L2 11L2 10L1 10L1 11L0 11L0 13L1 13L1 11L2 11L2 13L4 13L4 12L5 12L5 13L8 13L8 14L9 14L9 17L8 17L8 21L9 21L9 20L10 20L10 21L11 21L11 18L12 18L12 16L13 16L13 17L14 17L14 18L16 18L16 17L17 17L17 16L18 16L18 17L19 17L19 18L20 18L20 17L19 17L19 16L18 16L18 15L21 15L21 12L18 12L18 11L21 11L21 8L20 8L20 9L19 9L19 8L16 8L16 9L15 9L15 10L14 10L14 11L15 11L15 10L16 10L16 9L19 9L19 10L17 10L17 12L18 12L18 13L19 13L19 14L18 14L18 15L17 15L17 14L16 14L16 15L15 15L15 13L16 13L16 12L15 12L15 13L14 13L14 14L13 14L13 15L12 15L12 16L11 16L11 14L12 14L12 12L13 12L13 9L14 9L14 8L13 8L13 9L12 9L12 12L11 12L11 6L10 6L10 7L9 7L9 6ZM12 6L12 7L13 7L13 6ZM9 8L9 9L8 9L8 10L7 10L7 11L8 11L8 10L9 10L9 11L10 11L10 10L9 10L9 9L10 9L10 8ZM10 12L10 13L9 13L9 14L10 14L10 13L11 13L11 12ZM13 15L13 16L15 16L15 17L16 17L16 16L17 16L17 15L16 15L16 16L15 16L15 15ZM17 18L17 19L15 19L15 20L13 20L13 21L16 21L16 20L19 20L19 21L20 21L20 20L19 20L19 19L18 19L18 18ZM0 0L0 7L7 7L7 0ZM1 1L1 6L6 6L6 1ZM2 2L2 5L5 5L5 2ZM14 0L14 7L21 7L21 0ZM15 1L15 6L20 6L20 1ZM16 2L16 5L19 5L19 2ZM0 14L0 21L7 21L7 14ZM1 15L1 20L6 20L6 15ZM2 16L2 19L5 19L5 16Z" fill="#000000"/></g></g></svg>
