<?xml version="1.0" encoding="UTF-8"?>
<svg xmlns="http://www.w3.org/2000/svg" version="1.1" width="200" height="200" viewBox="0 0 200 200"><rect x="0" y="0" width="200" height="200" fill="#ffffff"/><g transform="scale(9.524)"><g transform="translate(0,0)"><path fill-rule="evenodd" d="M10 0L10 3L12 3L12 4L8 4L8 8L6 8L6 9L7 9L7 10L6 10L6 11L7 11L7 12L6 12L6 13L8 13L8 15L9 15L9 16L10 16L10 18L9 18L9 17L8 17L8 18L9 18L9 19L8 19L8 21L10 21L10 20L9 20L9 19L10 19L10 18L11 18L11 17L12 17L12 15L13 15L13 16L14 16L14 17L16 17L16 16L14 16L14 15L16 15L16 14L14 14L14 15L13 15L13 14L12 14L12 12L13 12L13 11L14 11L14 13L16 13L16 11L15 11L15 10L16 10L16 9L17 9L17 10L19 10L19 9L20 9L20 12L18 12L18 11L17 11L17 12L18 12L18 13L19 13L19 14L20 14L20 15L18 15L18 14L17 14L17 15L18 15L18 16L17 16L17 17L18 17L18 16L19 16L19 18L20 18L20 20L21 20L21 17L20 17L20 15L21 15L21 14L20 14L20 12L21 12L21 9L20 9L20 8L18 8L18 9L17 9L17 8L14 8L14 9L13 9L13 8L10 8L10 9L11 9L11 10L9 10L9 9L8 9L8 8L9 8L9 6L10 6L10 7L11 7L11 5L13 5L13 3L12 3L12 2L13 2L13 0L12 0L12 2L11 2L11 0ZM8 1L8 3L9 3L9 1ZM12 6L12 7L13 7L13 6ZM0 8L0 9L1 9L1 10L2 10L2 11L1 11L1 12L0 12L0 13L2 13L2 12L3 12L3 13L4 13L4 12L5 12L5 11L3 11L3 9L4 9L4 8L3 8L3 9L2 9L2 8ZM12 9L12 11L10 11L10 12L12 12L12 11L13 11L13 9ZM14 9L14 10L15 10L15 9ZM7 10L7 11L9 11L9 10ZM8 12L8 13L9 13L9 14L10 14L10 15L11 15L11 13L9 13L9 12ZM12 18L12 19L11 19L11 21L13 21L13 20L12 20L12 19L13 19L13 18ZM14 18L14 21L15 21L15 19L16 19L16 21L18 21L18 20L19 20L19 19L18 19L18 18L17 18L17 19L16 19L16 18ZM0 0L0 7L7 7L7 0ZM1 1L1 6L6 6L6 1ZM2 2L2 5L5 5L5 2ZM14 0L14 7L21 7L21 0ZM15 1L15 6L20 6L20 1ZM16 2L16 5L19 5L19 2ZM0 14L0 21L7 21L7 14ZM1 15L1 20L6 20L6 15ZM2 16L2 19L5 19L5 16Z" fill="#000000"/></g></g></svg>
