<?xml version="1.0" encoding="UTF-8"?>
<svg xmlns="http://www.w3.org/2000/svg" version="1.1" width="200" height="200" viewBox="0 0 200 200"><rect x="0" y="0" width="200" height="200" fill="#ffffff"/><g transform="scale(9.524)"><g transform="translate(0,0)"><path fill-rule="evenodd" d="M8 0L8 1L9 1L9 0ZM10 0L10 1L11 1L11 0ZM12 1L12 2L9 2L9 5L10 5L10 7L11 7L11 6L12 6L12 9L11 9L11 8L9 8L9 6L8 6L8 8L9 8L9 9L8 9L8 11L9 11L9 12L11 12L11 13L8 13L8 12L6 12L6 13L8 13L8 14L12 14L12 15L13 15L13 14L15 14L15 12L16 12L16 11L15 11L15 10L14 10L14 9L15 9L15 8L14 8L14 9L13 9L13 5L11 5L11 4L13 4L13 3L12 3L12 2L13 2L13 1ZM10 3L10 4L11 4L11 3ZM0 8L0 12L2 12L2 13L3 13L3 12L4 12L4 13L5 13L5 11L7 11L7 10L4 10L4 9L5 9L5 8L3 8L3 10L4 10L4 11L3 11L3 12L2 12L2 8ZM6 8L6 9L7 9L7 8ZM20 8L20 10L18 10L18 9L16 9L16 10L17 10L17 11L18 11L18 13L16 13L16 16L17 16L17 17L15 17L15 18L16 18L16 19L17 19L17 20L18 20L18 21L19 21L19 20L21 20L21 18L20 18L20 17L21 17L21 15L19 15L19 14L21 14L21 12L20 12L20 11L21 11L21 8ZM10 9L10 11L11 11L11 12L13 12L13 11L14 11L14 12L15 12L15 11L14 11L14 10L13 10L13 9L12 9L12 10L13 10L13 11L11 11L11 9ZM12 13L12 14L13 14L13 13ZM17 14L17 15L18 15L18 14ZM10 15L10 16L8 16L8 18L9 18L9 17L10 17L10 19L8 19L8 21L10 21L10 20L11 20L11 19L12 19L12 21L13 21L13 20L14 20L14 21L15 21L15 19L14 19L14 18L11 18L11 17L14 17L14 16L15 16L15 15L14 15L14 16L11 16L11 15ZM10 16L10 17L11 17L11 16ZM19 16L19 17L20 17L20 16ZM17 18L17 19L18 19L18 18ZM0 0L0 7L7 7L7 0ZM1 1L1 6L6 6L6 1ZM2 2L2 5L5 5L5 2ZM14 0L14 7L21 7L21 0ZM15 1L15 6L20 6L20 1ZM16 2L16 5L19 5L19 2ZM0 14L0 21L7 21L7 14ZM1 15L1 20L6 20L6 15ZM2 16L2 19L5 19L5 16Z" fill="#000000"/></g></g></svg>
