<?xml version="1.0" encoding="UTF-8"?>
<svg xmlns="http://www.w3.org/2000/svg" version="1.1" width="200" height="200" viewBox="0 0 200 200"><rect x="0" y="0" width="200" height="200" fill="#ffffff"/><g transform="scale(9.524)"><g transform="translate(0,0)"><path fill-rule="evenodd" d="M9 0L9 1L8 1L8 2L9 2L9 3L8 3L8 4L9 4L9 5L8 5L8 7L9 7L9 8L6 8L6 9L7 9L7 10L5 10L5 11L3 11L3 12L5 12L5 13L8 13L8 15L9 15L9 14L10 14L10 13L11 13L11 14L12 14L12 15L13 15L13 14L12 14L12 13L14 13L14 11L15 11L15 9L16 9L16 10L18 10L18 11L17 11L17 12L15 12L15 13L16 13L16 14L18 14L18 15L17 15L17 16L18 16L18 18L17 18L17 20L16 20L16 19L15 19L15 18L14 18L14 19L15 19L15 20L13 20L13 18L12 18L12 17L15 17L15 16L16 16L16 15L15 15L15 16L12 16L12 17L11 17L11 15L10 15L10 16L8 16L8 21L9 21L9 20L10 20L10 19L11 19L11 18L12 18L12 21L15 21L15 20L16 20L16 21L17 21L17 20L18 20L18 21L20 21L20 20L19 20L19 18L20 18L20 17L19 17L19 16L20 16L20 14L19 14L19 12L20 12L20 10L18 10L18 8L17 8L17 9L16 9L16 8L15 8L15 9L14 9L14 8L13 8L13 5L12 5L12 4L13 4L13 3L12 3L12 2L13 2L13 1L12 1L12 0L11 0L11 1L10 1L10 0ZM11 1L11 2L10 2L10 3L9 3L9 4L10 4L10 5L9 5L9 7L10 7L10 9L12 9L12 10L9 10L9 9L8 9L8 10L9 10L9 13L10 13L10 12L11 12L11 13L12 13L12 12L13 12L13 11L14 11L14 9L12 9L12 5L11 5L11 4L10 4L10 3L11 3L11 2L12 2L12 1ZM10 5L10 7L11 7L11 5ZM0 8L0 10L1 10L1 9L2 9L2 10L4 10L4 9L5 9L5 8ZM19 8L19 9L20 9L20 8ZM12 10L12 11L11 11L11 12L12 12L12 11L13 11L13 10ZM6 11L6 12L7 12L7 11ZM0 12L0 13L2 13L2 12ZM9 17L9 19L10 19L10 17ZM0 0L0 7L7 7L7 0ZM1 1L1 6L6 6L6 1ZM2 2L2 5L5 5L5 2ZM14 0L14 7L21 7L21 0ZM15 1L15 6L20 6L20 1ZM16 2L16 5L19 5L19 2ZM0 14L0 21L7 21L7 14ZM1 15L1 20L6 20L6 15ZM2 16L2 19L5 19L5 16Z" fill="#000000"/></g></g></svg>
