<?xml version="1.0" encoding="UTF-8"?>
<svg xmlns="http://www.w3.org/2000/svg" version="1.1" width="200" height="200" viewBox="0 0 200 200"><rect x="0" y="0" width="200" height="200" fill="#ffffff"/><g transform="scale(9.524)"><g transform="translate(0,0)"><path fill-rule="evenodd" d="M10 0L10 1L11 1L11 2L10 2L10 4L8 4L8 8L6 8L6 9L5 9L5 10L4 10L4 8L3 8L3 11L2 11L2 10L1 10L1 11L0 11L0 13L4 13L4 12L5 12L5 13L7 13L7 12L8 12L8 15L9 15L9 17L8 17L8 18L10 18L10 19L11 19L11 20L9 20L9 19L8 19L8 21L16 21L16 20L17 20L17 21L20 21L20 20L17 20L17 19L19 19L19 18L15 18L15 17L16 17L16 15L20 15L20 14L14 14L14 15L13 15L13 13L14 13L14 12L15 12L15 13L19 13L19 12L18 12L18 11L19 11L19 10L20 10L20 13L21 13L21 10L20 10L20 8L18 8L18 11L17 11L17 12L16 12L16 11L15 11L15 10L14 10L14 9L16 9L16 10L17 10L17 8L14 8L14 9L13 9L13 8L12 8L12 7L13 7L13 6L12 6L12 7L11 7L11 5L12 5L12 4L13 4L13 2L12 2L12 0ZM8 1L8 3L9 3L9 1ZM11 2L11 3L12 3L12 2ZM10 4L10 5L11 5L11 4ZM9 6L9 7L10 7L10 6ZM0 8L0 9L2 9L2 8ZM8 8L8 9L6 9L6 10L8 10L8 9L9 9L9 11L10 11L10 12L9 12L9 13L10 13L10 14L9 14L9 15L10 15L10 14L12 14L12 12L11 12L11 11L12 11L12 9L10 9L10 8ZM10 10L10 11L11 11L11 10ZM1 11L1 12L2 12L2 11ZM5 11L5 12L7 12L7 11ZM13 11L13 12L14 12L14 11ZM10 12L10 13L11 13L11 12ZM14 15L14 16L13 16L13 17L15 17L15 15ZM10 16L10 18L11 18L11 19L12 19L12 20L15 20L15 18L13 18L13 19L12 19L12 18L11 18L11 17L12 17L12 16ZM18 16L18 17L20 17L20 19L21 19L21 16ZM0 0L0 7L7 7L7 0ZM1 1L1 6L6 6L6 1ZM2 2L2 5L5 5L5 2ZM14 0L14 7L21 7L21 0ZM15 1L15 6L20 6L20 1ZM16 2L16 5L19 5L19 2ZM0 14L0 21L7 21L7 14ZM1 15L1 20L6 20L6 15ZM2 16L2 19L5 19L5 16Z" fill="#000000"/></g></g></svg>
