<?xml version="1.0" encoding="UTF-8"?>
<svg xmlns="http://www.w3.org/2000/svg" version="1.1" width="200" height="200" viewBox="0 0 200 200"><rect x="0" y="0" width="200" height="200" fill="#ffffff"/><g transform="scale(9.524)"><g transform="translate(0,0)"><path fill-rule="evenodd" d="M10 0L10 1L11 1L11 0ZM12 0L12 2L13 2L13 0ZM8 2L8 3L9 3L9 2ZM10 2L10 3L11 3L11 2ZM12 3L12 4L11 4L11 5L10 5L10 4L9 4L9 6L8 6L8 8L4 8L4 9L5 9L5 10L3 10L3 8L0 8L0 12L1 12L1 9L2 9L2 10L3 10L3 11L2 11L2 12L3 12L3 11L5 11L5 10L6 10L6 11L7 11L7 12L4 12L4 13L8 13L8 17L9 17L9 18L8 18L8 21L9 21L9 20L11 20L11 21L12 21L12 19L10 19L10 18L12 18L12 17L14 17L14 21L16 21L16 20L15 20L15 19L17 19L17 20L20 20L20 21L21 21L21 18L20 18L20 17L19 17L19 18L20 18L20 19L18 19L18 16L20 16L20 15L18 15L18 16L17 16L17 15L16 15L16 16L17 16L17 18L16 18L16 17L15 17L15 16L14 16L14 15L13 15L13 14L14 14L14 13L15 13L15 14L16 14L16 13L17 13L17 10L19 10L19 11L21 11L21 9L20 9L20 10L19 10L19 8L18 8L18 9L17 9L17 10L16 10L16 9L15 9L15 8L12 8L12 9L11 9L11 6L12 6L12 7L13 7L13 6L12 6L12 5L13 5L13 3ZM9 6L9 10L8 10L8 13L9 13L9 11L11 11L11 9L10 9L10 6ZM6 9L6 10L7 10L7 9ZM12 9L12 11L13 11L13 12L12 12L12 14L9 14L9 15L12 15L12 16L13 16L13 15L12 15L12 14L13 14L13 13L14 13L14 12L15 12L15 11L16 11L16 10L15 10L15 9L14 9L14 10L13 10L13 9ZM14 10L14 11L15 11L15 10ZM10 12L10 13L11 13L11 12ZM18 12L18 13L20 13L20 12ZM0 0L0 7L7 7L7 0ZM1 1L1 6L6 6L6 1ZM2 2L2 5L5 5L5 2ZM14 0L14 7L21 7L21 0ZM15 1L15 6L20 6L20 1ZM16 2L16 5L19 5L19 2ZM0 14L0 21L7 21L7 14ZM1 15L1 20L6 20L6 15ZM2 16L2 19L5 19L5 16Z" fill="#000000"/></g></g></svg>
