<?xml version="1.0" encoding="UTF-8"?>
<svg xmlns="http://www.w3.org/2000/svg" version="1.1" width="200" height="200" viewBox="0 0 200 200"><rect x="0" y="0" width="200" height="200" fill="#ffffff"/><g transform="scale(9.524)"><g transform="translate(0,0)"><path fill-rule="evenodd" d="M9 0L9 1L8 1L8 2L9 2L9 3L8 3L8 4L9 4L9 5L8 5L8 7L9 7L9 8L6 8L6 9L7 9L7 10L4 10L4 9L5 9L5 8L0 8L0 9L1 9L1 13L2 13L2 12L4 12L4 13L5 13L5 11L7 11L7 12L6 12L6 13L8 13L8 15L10 15L10 16L11 16L11 15L10 15L10 14L9 14L9 13L10 13L10 12L9 12L9 13L8 13L8 11L10 11L10 10L12 10L12 11L11 11L11 12L12 12L12 13L11 13L11 14L12 14L12 15L13 15L13 14L12 14L12 13L14 13L14 11L15 11L15 13L16 13L16 14L18 14L18 15L17 15L17 16L18 16L18 18L17 18L17 20L16 20L16 19L15 19L15 18L14 18L14 19L15 19L15 20L13 20L13 18L12 18L12 17L15 17L15 16L16 16L16 15L15 15L15 16L12 16L12 17L11 17L11 18L12 18L12 21L15 21L15 20L16 20L16 21L17 21L17 20L18 20L18 21L20 21L20 20L19 20L19 18L20 18L20 17L19 17L19 16L20 16L20 14L19 14L19 12L20 12L20 10L18 10L18 8L17 8L17 9L16 9L16 8L15 8L15 9L16 9L16 10L14 10L14 11L13 11L13 10L12 10L12 9L14 9L14 8L13 8L13 5L12 5L12 4L11 4L11 3L10 3L10 2L9 2L9 1L10 1L10 0ZM11 0L11 1L12 1L12 3L13 3L13 1L12 1L12 0ZM9 3L9 4L10 4L10 5L9 5L9 7L10 7L10 9L8 9L8 10L7 10L7 11L8 11L8 10L10 10L10 9L12 9L12 5L11 5L11 4L10 4L10 3ZM10 6L10 7L11 7L11 6ZM19 8L19 9L20 9L20 8ZM16 10L16 13L17 13L17 11L18 11L18 10ZM12 11L12 12L13 12L13 11ZM8 16L8 21L9 21L9 19L10 19L10 21L11 21L11 19L10 19L10 18L9 18L9 16ZM0 0L0 7L7 7L7 0ZM1 1L1 6L6 6L6 1ZM2 2L2 5L5 5L5 2ZM14 0L14 7L21 7L21 0ZM15 1L15 6L20 6L20 1ZM16 2L16 5L19 5L19 2ZM0 14L0 21L7 21L7 14ZM1 15L1 20L6 20L6 15ZM2 16L2 19L5 19L5 16Z" fill="#000000"/></g></g></svg>
