<?xml version="1.0" encoding="UTF-8"?>
<svg xmlns="http://www.w3.org/2000/svg" version="1.1" width="200" height="200" viewBox="0 0 200 200"><rect x="0" y="0" width="200" height="200" fill="#ffffff"/><g transform="scale(9.524)"><g transform="translate(0,0)"><path fill-rule="evenodd" d="M10 0L10 1L9 1L9 3L8 3L8 5L10 5L10 7L11 7L11 5L12 5L12 9L11 9L11 10L12 10L12 11L10 11L10 10L9 10L9 9L10 9L10 8L9 8L9 9L8 9L8 8L5 8L5 10L4 10L4 9L3 9L3 10L2 10L2 8L0 8L0 9L1 9L1 10L0 10L0 12L1 12L1 13L4 13L4 12L5 12L5 13L7 13L7 12L8 12L8 16L9 16L9 19L8 19L8 21L10 21L10 20L11 20L11 19L12 19L12 21L15 21L15 20L13 20L13 19L14 19L14 18L12 18L12 17L15 17L15 18L16 18L16 19L17 19L17 20L16 20L16 21L17 21L17 20L18 20L18 21L20 21L20 20L19 20L19 19L21 19L21 18L20 18L20 17L19 17L19 16L21 16L21 15L20 15L20 14L19 14L19 13L21 13L21 12L20 12L20 10L21 10L21 9L20 9L20 10L18 10L18 8L16 8L16 10L18 10L18 11L16 11L16 12L18 12L18 13L16 13L16 14L18 14L18 15L16 15L16 16L18 16L18 19L17 19L17 18L16 18L16 17L15 17L15 12L14 12L14 11L15 11L15 9L14 9L14 10L12 10L12 9L13 9L13 5L12 5L12 4L13 4L13 3L12 3L12 2L13 2L13 1L12 1L12 2L11 2L11 5L10 5L10 1L11 1L11 0ZM8 6L8 7L9 7L9 6ZM6 9L6 10L5 10L5 11L6 11L6 12L7 12L7 11L8 11L8 12L9 12L9 11L8 11L8 9ZM1 10L1 11L2 11L2 12L4 12L4 11L2 11L2 10ZM6 10L6 11L7 11L7 10ZM12 11L12 12L13 12L13 11ZM10 12L10 14L9 14L9 15L10 15L10 16L11 16L11 17L12 17L12 16L14 16L14 14L13 14L13 13L12 13L12 14L11 14L11 12ZM12 14L12 15L13 15L13 14ZM0 0L0 7L7 7L7 0ZM1 1L1 6L6 6L6 1ZM2 2L2 5L5 5L5 2ZM14 0L14 7L21 7L21 0ZM15 1L15 6L20 6L20 1ZM16 2L16 5L19 5L19 2ZM0 14L0 21L7 21L7 14ZM1 15L1 20L6 20L6 15ZM2 16L2 19L5 19L5 16Z" fill="#000000"/></g></g></svg>
