<?xml version="1.0" encoding="UTF-8"?>
<svg xmlns="http://www.w3.org/2000/svg" version="1.1" width="200" height="200" viewBox="0 0 200 200"><rect x="0" y="0" width="200" height="200" fill="#ffffff"/><g transform="scale(9.524)"><g transform="translate(0,0)"><path fill-rule="evenodd" d="M9 0L9 1L8 1L8 3L9 3L9 2L10 2L10 4L11 4L11 5L9 5L9 4L8 4L8 8L6 8L6 9L4 9L4 8L3 8L3 9L2 9L2 8L0 8L0 9L1 9L1 10L0 10L0 11L1 11L1 13L2 13L2 11L3 11L3 12L5 12L5 10L6 10L6 11L7 11L7 12L6 12L6 13L7 13L7 12L8 12L8 11L9 11L9 12L10 12L10 13L11 13L11 12L12 12L12 14L11 14L11 16L9 16L9 17L8 17L8 18L9 18L9 19L8 19L8 21L9 21L9 19L10 19L10 21L16 21L16 20L17 20L17 21L20 21L20 20L17 20L17 19L19 19L19 18L15 18L15 17L16 17L16 15L20 15L20 14L16 14L16 15L15 15L15 17L13 17L13 16L14 16L14 12L15 12L15 13L19 13L19 12L18 12L18 11L19 11L19 10L20 10L20 13L21 13L21 10L20 10L20 8L18 8L18 11L16 11L16 10L17 10L17 8L14 8L14 9L13 9L13 8L12 8L12 7L13 7L13 6L12 6L12 7L11 7L11 5L12 5L12 4L13 4L13 2L12 2L12 0ZM10 1L10 2L11 2L11 3L12 3L12 2L11 2L11 1ZM9 6L9 7L10 7L10 6ZM8 8L8 9L6 9L6 10L8 10L8 9L10 9L10 8ZM11 9L11 10L10 10L10 12L11 12L11 11L12 11L12 9ZM14 9L14 10L13 10L13 11L14 11L14 10L15 10L15 9ZM1 10L1 11L2 11L2 10ZM3 10L3 11L4 11L4 10ZM15 11L15 12L16 12L16 11ZM8 13L8 15L9 15L9 13ZM11 16L11 17L9 17L9 18L10 18L10 19L12 19L12 20L15 20L15 18L13 18L13 19L12 19L12 18L11 18L11 17L12 17L12 16ZM18 16L18 17L20 17L20 19L21 19L21 16ZM0 0L0 7L7 7L7 0ZM1 1L1 6L6 6L6 1ZM2 2L2 5L5 5L5 2ZM14 0L14 7L21 7L21 0ZM15 1L15 6L20 6L20 1ZM16 2L16 5L19 5L19 2ZM0 14L0 21L7 21L7 14ZM1 15L1 20L6 20L6 15ZM2 16L2 19L5 19L5 16Z" fill="#000000"/></g></g></svg>
