<?xml version="1.0" encoding="UTF-8"?>
<svg xmlns="http://www.w3.org/2000/svg" version="1.1" width="200" height="200" viewBox="0 0 200 200"><rect x="0" y="0" width="200" height="200" fill="#ffffff"/><g transform="scale(9.524)"><g transform="translate(0,0)"><path fill-rule="evenodd" d="M8 0L8 1L9 1L9 2L8 2L8 5L9 5L9 6L8 6L8 7L9 7L9 6L10 6L10 7L11 7L11 8L10 8L10 9L9 9L9 8L8 8L8 12L6 12L6 13L8 13L8 14L9 14L9 15L10 15L10 16L9 16L9 17L8 17L8 21L9 21L9 20L12 20L12 19L13 19L13 18L14 18L14 21L16 21L16 20L15 20L15 18L17 18L17 19L19 19L19 18L17 18L17 17L18 17L18 16L20 16L20 17L21 17L21 16L20 16L20 15L17 15L17 13L19 13L19 12L18 12L18 9L19 9L19 8L16 8L16 9L15 9L15 12L17 12L17 13L15 13L15 14L14 14L14 13L13 13L13 11L12 11L12 9L11 9L11 8L12 8L12 7L13 7L13 6L12 6L12 7L11 7L11 5L10 5L10 4L12 4L12 5L13 5L13 2L12 2L12 0ZM10 1L10 2L9 2L9 4L10 4L10 2L11 2L11 1ZM0 8L0 9L1 9L1 10L0 10L0 13L1 13L1 12L2 12L2 13L5 13L5 12L3 12L3 11L7 11L7 10L2 10L2 9L4 9L4 8ZM6 8L6 9L7 9L7 8ZM13 8L13 9L14 9L14 8ZM20 8L20 9L21 9L21 8ZM10 9L10 10L11 10L11 9ZM1 10L1 11L2 11L2 10ZM16 10L16 11L17 11L17 10ZM19 10L19 11L21 11L21 10ZM9 11L9 12L8 12L8 13L9 13L9 12L11 12L11 14L10 14L10 15L11 15L11 16L10 16L10 17L11 17L11 16L12 16L12 17L13 17L13 16L14 16L14 18L15 18L15 15L16 15L16 17L17 17L17 15L16 15L16 14L15 14L15 15L14 15L14 14L12 14L12 12L11 12L11 11ZM20 13L20 14L21 14L21 13ZM9 18L9 19L10 19L10 18ZM11 18L11 19L12 19L12 18ZM20 19L20 20L21 20L21 19ZM0 0L0 7L7 7L7 0ZM1 1L1 6L6 6L6 1ZM2 2L2 5L5 5L5 2ZM14 0L14 7L21 7L21 0ZM15 1L15 6L20 6L20 1ZM16 2L16 5L19 5L19 2ZM0 14L0 21L7 21L7 14ZM1 15L1 20L6 20L6 15ZM2 16L2 19L5 19L5 16Z" fill="#000000"/></g></g></svg>
