<?xml version="1.0" encoding="UTF-8"?>
<svg xmlns="http://www.w3.org/2000/svg" version="1.1" width="200" height="200" viewBox="0 0 200 200"><rect x="0" y="0" width="200" height="200" fill="#ffffff"/><g transform="scale(9.524)"><g transform="translate(0,0)"><path fill-rule="evenodd" d="M8 0L8 1L9 1L9 0ZM10 0L10 1L11 1L11 0ZM12 1L12 2L13 2L13 1ZM9 2L9 5L10 5L10 7L11 7L11 6L12 6L12 9L11 9L11 8L9 8L9 6L8 6L8 8L9 8L9 9L10 9L10 10L8 10L8 9L7 9L7 8L6 8L6 9L5 9L5 8L3 8L3 9L5 9L5 10L6 10L6 11L7 11L7 12L5 12L5 11L3 11L3 10L2 10L2 8L0 8L0 11L1 11L1 12L0 12L0 13L1 13L1 12L2 12L2 13L4 13L4 12L5 12L5 13L8 13L8 14L9 14L9 11L10 11L10 10L11 10L11 11L13 11L13 12L10 12L10 13L11 13L11 14L12 14L12 15L14 15L14 16L10 16L10 15L9 15L9 16L8 16L8 18L9 18L9 19L8 19L8 21L9 21L9 19L10 19L10 20L11 20L11 19L12 19L12 21L13 21L13 20L14 20L14 21L15 21L15 19L14 19L14 18L10 18L10 17L14 17L14 16L15 16L15 15L14 15L14 14L16 14L16 16L17 16L17 17L15 17L15 18L16 18L16 19L17 19L17 20L18 20L18 21L19 21L19 20L21 20L21 18L20 18L20 17L21 17L21 15L19 15L19 14L21 14L21 12L20 12L20 11L21 11L21 8L20 8L20 10L18 10L18 9L17 9L17 11L15 11L15 13L13 13L13 12L14 12L14 10L15 10L15 8L14 8L14 9L13 9L13 5L11 5L11 4L13 4L13 3L11 3L11 2ZM10 3L10 4L11 4L11 3ZM6 9L6 10L7 10L7 9ZM12 9L12 10L13 10L13 9ZM2 11L2 12L3 12L3 11ZM17 11L17 13L16 13L16 14L17 14L17 15L18 15L18 14L17 14L17 13L18 13L18 11ZM12 13L12 14L13 14L13 13ZM19 16L19 17L20 17L20 16ZM17 18L17 19L18 19L18 18ZM0 0L0 7L7 7L7 0ZM1 1L1 6L6 6L6 1ZM2 2L2 5L5 5L5 2ZM14 0L14 7L21 7L21 0ZM15 1L15 6L20 6L20 1ZM16 2L16 5L19 5L19 2ZM0 14L0 21L7 21L7 14ZM1 15L1 20L6 20L6 15ZM2 16L2 19L5 19L5 16Z" fill="#000000"/></g></g></svg>
