<?xml version="1.0" encoding="UTF-8"?>
<svg xmlns="http://www.w3.org/2000/svg" version="1.1" width="200" height="200" viewBox="0 0 200 200"><rect x="0" y="0" width="200" height="200" fill="#ffffff"/><g transform="scale(9.524)"><g transform="translate(0,0)"><path fill-rule="evenodd" d="M10 0L10 1L11 1L11 0ZM12 0L12 2L13 2L13 0ZM8 2L8 3L9 3L9 2ZM10 2L10 3L11 3L11 2ZM12 3L12 4L11 4L11 5L10 5L10 4L9 4L9 6L8 6L8 8L4 8L4 9L5 9L5 11L4 11L4 10L3 10L3 12L2 12L2 13L4 13L4 12L5 12L5 11L7 11L7 12L6 12L6 13L7 13L7 12L8 12L8 11L9 11L9 10L10 10L10 9L11 9L11 11L10 11L10 12L11 12L11 13L12 13L12 12L13 12L13 14L12 14L12 15L13 15L13 16L12 16L12 17L10 17L10 18L8 18L8 21L9 21L9 20L11 20L11 21L12 21L12 20L14 20L14 21L16 21L16 19L19 19L19 20L18 20L18 21L21 21L21 20L20 20L20 19L21 19L21 18L20 18L20 17L19 17L19 16L21 16L21 14L20 14L20 13L21 13L21 12L20 12L20 13L19 13L19 12L17 12L17 10L16 10L16 9L15 9L15 8L12 8L12 9L11 9L11 6L12 6L12 7L13 7L13 6L12 6L12 5L13 5L13 3ZM9 6L9 9L6 9L6 10L7 10L7 11L8 11L8 10L9 10L9 9L10 9L10 6ZM0 8L0 12L1 12L1 9L3 9L3 8ZM18 8L18 11L21 11L21 10L20 10L20 9L19 9L19 8ZM12 9L12 11L13 11L13 12L14 12L14 14L13 14L13 15L14 15L14 17L12 17L12 19L14 19L14 20L15 20L15 18L17 18L17 17L18 17L18 18L19 18L19 19L20 19L20 18L19 18L19 17L18 17L18 16L19 16L19 15L18 15L18 14L19 14L19 13L16 13L16 12L15 12L15 10L14 10L14 11L13 11L13 9ZM8 13L8 17L9 17L9 14L10 14L10 13ZM15 13L15 14L14 14L14 15L15 15L15 17L17 17L17 16L16 16L16 15L17 15L17 14L16 14L16 13ZM10 15L10 16L11 16L11 15ZM10 18L10 19L11 19L11 18ZM0 0L0 7L7 7L7 0ZM1 1L1 6L6 6L6 1ZM2 2L2 5L5 5L5 2ZM14 0L14 7L21 7L21 0ZM15 1L15 6L20 6L20 1ZM16 2L16 5L19 5L19 2ZM0 14L0 21L7 21L7 14ZM1 15L1 20L6 20L6 15ZM2 16L2 19L5 19L5 16Z" fill="#000000"/></g></g></svg>
